<?xml version="1.0" encoding="utf-8"?>
<!-- Generator: Adobe Illustrator 19.2.1, SVG Export Plug-In . SVG Version: 6.00 Build 0)  -->
<!DOCTYPE svg PUBLIC "-//W3C//DTD SVG 1.1//EN" "http://www.w3.org/Graphics/SVG/1.1/DTD/svg11.dtd">
<svg version="1.1" id="Layer_1" xmlns="http://www.w3.org/2000/svg" xmlns:xlink="http://www.w3.org/1999/xlink" x="0px" y="0px"
	 viewBox="0 0 166.2 144.3" enable-background="new 0 0 166.2 144.3" xml:space="preserve">
<g>
	<g>
		<path fill="#BCDEEE" d="M88.1,133.4c0,2.5-0.4,4.6-1.1,6.3c-0.9,1.9-2.1,3.4-3.6,4c-1.5,0.7-3.2,0.7-5-0.1l-65.9-30.2l-12.4-5.6
			v-29l44,20.2l34.2,15.7c4.8,2.1,8.8,9.1,9.6,16.2c0.1,0.7,0.1,1.3,0.2,1.9C88.1,133,88.1,133.2,88.1,133.4z"/>
		<path fill="#003D58" d="M166.2,97.7c0,5.3-1.9,9.1-4.7,10.4l-14.5,6.7l-63.6,29c1.5-0.7,2.7-2.1,3.6-4c0.7-1.7,1.1-3.8,1.1-6.3
			c0-0.2,0-0.4,0-0.6c0-0.6-0.1-1.3-0.1-1.9c-0.8-7.2-4.8-14.1-9.6-16.2L44.2,99l-44-20.2l9-4.1l67.2,30.8c1.6,0.7,3.2,1,4.7,1
			c1.5,0,3-0.3,4.4-1L150.1,76c3.9,1.8,6.3,2.9,6.4,2.9C161.9,81.3,166.2,89.7,166.2,97.7z"/>
	</g>
	<g>
		<path fill="#FFFFFF" d="M132.6,25c-1.7-0.8-3.5-1.6-5.2-2.4C129.2,23.4,130.9,24.2,132.6,25z M121.1,19.7
			C100.4,10.2,78.4,0,78.4,0S100.4,10.2,121.1,19.7z M0,35.9L78.1,0v0L0,35.9z"/>
	</g>
	<g>
		<path fill="#BCDEEE" d="M88.1,90.5c0,0.9-0.1,1.8-0.2,2.6c-0.2,1.4-0.5,2.6-1,3.7c-0.9,1.9-2.1,3.4-3.6,4c-1.5,0.7-3.2,0.7-5-0.1
			l-63-28.9l-2.9-1.3L0.1,64.9V35.9l6.2,2.8l37.9,17.4l2.8,1.1l31.4,14.2h0c1.2,1,2.3,1.5,3.4,2.6c0,0,0.1,0.1,0.1,0.1l0.3,0.4
			C83.6,76,85,78,86,80.2c0.4,0.8,0.1,1.7,1.1,2.5c0,0,0,0,0,0c0,1.7,0.8,3.5,1,5.3C88.2,88.8,88.1,89.7,88.1,90.5z"/>
		<path fill="#003D58" d="M166.2,54.8c0,5.3-1.9,9.1-4.7,10.4L147,71.8l-2.9,1.3l-60.6,27.7c1.5-0.7,2.7-2.1,3.6-4
			c0.5-1.1,0.8-2.3,1-3.7c0.1-0.8,0.2-1.7,0.2-2.6c0-0.9-0.1-1.7-0.2-2.6c-0.2-1.8-0.6-3.6-1.1-5.3c-0.3-0.8-0.6-1.7-1-2.5
			c-1-2.2-2.2-4.2-3.7-5.7c-0.1-0.1-0.2-0.3-0.3-0.5c0-0.1-0.1-0.1-0.1-0.1c-1.1-1.1-2.2-1.6-3.4-2.6h0L47,57.1L44.2,56L6.4,38.6
			l0,0l-6.2-2.8L78.1,0v0c0,0,22.2,10.1,42.8,19.7c0.3,0.1,0.7,0.3,1,0.4c0.9,0.4,1.8,0.8,2.7,1.2c0.6,0.3,1.2,0.5,1.8,0.8
			c0.3,0.1,0.6,0.3,0.9,0.4c1.8,0.8,3.5,1.6,5.2,2.4c0.3,0.1,0.6,0.3,0.9,0.4c0.6,0.3,1.1,0.5,1.7,0.8c2.2,1,4.3,2,6.3,2.9
			c0.5,0.2,1,0.5,1.5,0.7c0.7,0.3,1.4,0.6,2.1,1c0.7,0.3,1.3,0.6,2,0.9c5.8,2.7,9.6,4.4,9.6,4.4C161.9,38.4,166.2,46.8,166.2,54.8z"
			/>
	</g>
</g>
</svg>
