<?xml version="1.0" encoding="utf-8"?>
<!-- Generator: Adobe Illustrator 19.2.1, SVG Export Plug-In . SVG Version: 6.00 Build 0)  -->
<!DOCTYPE svg PUBLIC "-//W3C//DTD SVG 1.1//EN" "http://www.w3.org/Graphics/SVG/1.1/DTD/svg11.dtd">
<svg version="1.1" id="Layer_1" xmlns="http://www.w3.org/2000/svg" xmlns:xlink="http://www.w3.org/1999/xlink" x="0px" y="0px"
	 viewBox="0 0 465.5 28.1" enable-background="new 0 0 465.5 28.1" xml:space="preserve">
<path fill="#003D58" d="M0,27.4v-2.6h4.4V3.1H0V0.6h11.7c0.8,0,1.6,0,2.3,0.1s1.6,0.2,2.4,0.4c0.9,0.2,1.6,0.4,2.3,0.7
	c0.7,0.3,1.3,0.7,1.9,1.2c0.6,0.5,1,1.1,1.4,1.8c0.3,0.7,0.5,1.5,0.5,2.4c0,1.5-0.4,2.8-1.2,3.7c-0.8,0.9-2.1,1.6-3.7,2.1
	c2,0.5,3.6,1.3,4.7,2.5c1.1,1.2,1.6,2.7,1.6,4.6c0,1-0.1,1.8-0.4,2.6c-0.3,0.8-0.7,1.4-1.1,1.9c-0.5,0.5-1,0.9-1.7,1.3
	c-0.7,0.4-1.4,0.6-2.1,0.8c-0.7,0.2-1.4,0.3-2.3,0.5c-0.9,0.1-1.6,0.2-2.3,0.2c-0.6,0-1.4,0-2.2,0H0z M8.6,12h3.9
	c0.8,0,1.5-0.1,2.2-0.2c0.7-0.2,1.4-0.4,2-0.7c0.6-0.3,1.1-0.8,1.5-1.3c0.4-0.6,0.5-1.2,0.5-2c0-0.6-0.1-1.1-0.2-1.6
	S18.1,5.4,17.9,5c-0.2-0.3-0.5-0.6-1-0.8c-0.4-0.2-0.8-0.4-1.2-0.6c-0.4-0.1-1-0.2-1.6-0.3c-0.6-0.1-1.3-0.1-1.9-0.2
	c-0.6,0-1.3,0-2.2,0H8.6V12z M8.6,24.9h2.1c0.8,0,1.5,0,2.1,0c0.6,0,1.2-0.1,1.8-0.1c0.6-0.1,1.1-0.1,1.6-0.3
	c0.4-0.1,0.9-0.3,1.3-0.4c0.4-0.2,0.8-0.4,1-0.6c0.3-0.2,0.5-0.5,0.7-0.9c0.2-0.3,0.4-0.7,0.4-1.2c0.1-0.4,0.1-0.9,0.1-1.5
	c0-0.9-0.2-1.7-0.6-2.5c-0.4-0.7-1-1.3-1.7-1.7c-0.7-0.4-1.5-0.8-2.3-1c-0.9-0.2-1.7-0.3-2.7-0.3H8.6V24.9z M35.9,27.9
	c-2.9,0-5.1-1-6.8-2.9c-1.7-1.9-2.5-4.3-2.5-7.2c0-1.9,0.4-3.6,1.1-5.1c0.7-1.5,1.8-2.7,3.2-3.6c1.4-0.9,3.1-1.3,5-1.3
	c1.4,0,2.7,0.3,3.9,0.8c1.2,0.5,2.2,1.2,2.9,2.1c0.8,0.9,1.4,2,1.8,3.2c0.4,1.2,0.6,2.6,0.6,4c0,1.9-0.4,3.6-1.1,5.1
	c-0.7,1.5-1.8,2.7-3.2,3.6C39.5,27.5,37.8,27.9,35.9,27.9z M38.8,11c-0.8-0.7-1.8-1.1-3-1.1c-1.2,0-2.2,0.4-3,1.1
	c-0.8,0.7-1.4,1.7-1.7,2.9c-0.4,1.2-0.5,2.6-0.5,4.2c0,2.3,0.5,4.1,1.4,5.5c0.9,1.4,2.2,2.1,3.9,2.1c1.6,0,2.9-0.7,3.8-2.1
	c0.9-1.4,1.4-3.2,1.4-5.5c0-1.6-0.2-3-0.5-4.2C40.2,12.7,39.6,11.7,38.8,11z M65.9,28.1c-0.6,0-1.1-0.2-1.4-0.6
	c-0.4-0.4-0.6-1-0.9-1.9l-3.1-11.5l-3.7,11.4c-0.3,1-0.7,1.7-1,2.1c-0.4,0.4-0.9,0.6-1.5,0.6c-0.6,0-1-0.2-1.4-0.6
	c-0.3-0.4-0.6-1-0.9-2l-4.1-15.3h-3v-2h10v2h-2.9l3,13.3l4.2-13.2h3.2l3.9,13.3l3.3-13.4h-3v-2h8.2v2h-2.5l-4.1,15.2
	c-0.3,1-0.6,1.7-0.9,2.1C67,28,66.5,28.1,65.9,28.1z M75.4,18.1c0-1.1,0.1-2.1,0.4-3.1c0.2-1,0.6-2,1.1-2.8s1.1-1.6,1.8-2.3
	s1.6-1.2,2.6-1.5c1-0.4,2.1-0.6,3.2-0.6c1.2,0,2.3,0.2,3.4,0.6s2,1.1,2.8,1.9c0.8,0.8,1.4,1.9,1.9,3.1c0.5,1.3,0.7,2.7,0.7,4.2H79.5
	v0.1c0,1,0.1,2,0.3,2.9c0.2,0.9,0.5,1.7,1,2.4c0.4,0.7,1,1.3,1.8,1.7c0.7,0.4,1.6,0.6,2.5,0.6c1.2,0,2.4-0.4,3.5-1.2
	c1.1-0.8,1.8-1.9,2.2-3.3l2.1,0.7c-0.5,2-1.4,3.5-2.8,4.7c-1.4,1.2-3.2,1.8-5.3,1.8c-1.5,0-2.8-0.3-4-0.8c-1.2-0.6-2.2-1.3-3-2.2
	c-0.8-0.9-1.4-2-1.8-3.1C75.7,20.6,75.4,19.4,75.4,18.1z M79.7,15.7h9.7c-0.1-1.7-0.5-3.1-1.4-4.2c-0.9-1.1-2-1.6-3.3-1.6
	c-1.3,0-2.4,0.5-3.4,1.6C80.4,12.5,79.8,13.9,79.7,15.7z M105.6,27.4H95v-2h3.5V10.3H95v-2l6.8-0.3l0.4,3.9c0.6-1.3,1.5-2.3,2.7-3.1
	s2.4-1.1,3.7-1.1c0.4,0,0.7,0,1,0.1c0.3,0,0.7,0.1,1.1,0.2c0.4,0.1,0.8,0.3,1.1,0.5c0.3,0.2,0.7,0.5,1,0.8c0.3,0.4,0.6,0.8,0.9,1.2
	c0.2,0.5,0.4,1.1,0.6,1.8c0.2,0.7,0.2,1.5,0.2,2.3v10.7h3.7v2h-10.8v-2h3.3V14.7c0-1.5-0.3-2.7-0.9-3.4c-0.6-0.7-1.4-1.1-2.5-1.1
	c-0.7,0-1.3,0.1-1.9,0.4s-1,0.6-1.4,1c-0.4,0.4-0.7,0.9-0.9,1.5c-0.3,0.6-0.4,1.2-0.5,1.8c-0.1,0.6-0.2,1.3-0.2,2v8.5h3.2V27.4z
	 M139.1,27.9c-1.4,0-2.8-0.1-4-0.4c-1.3-0.3-2.5-0.6-3.5-1.2c-1.1-0.5-1.9-1.2-2.5-2c-0.6-0.9-0.9-1.8-0.9-2.9c0-1,0.3-1.8,1-2.4
	c0.6-0.6,1.4-1,2.3-1c0.8,0,1.5,0.3,2,0.9c0.5,0.6,0.8,1.3,0.8,2.1c0,0.8-0.2,1.4-0.7,1.8c-0.5,0.4-1.1,0.7-1.8,0.8
	c0.8,0.6,1.8,1,2.8,1.4c1.1,0.3,2.4,0.5,4.1,0.5c1.2,0,2.4-0.1,3.4-0.4s1.8-0.8,2.4-1.5c0.6-0.7,1-1.5,1-2.5c0-0.6-0.1-1.1-0.3-1.5
	c-0.2-0.4-0.5-0.8-0.8-1.2c-0.3-0.3-0.8-0.6-1.5-0.9c-0.6-0.3-1.3-0.5-2-0.8s-1.6-0.5-2.7-0.7c-2.4-0.6-4.4-1.3-5.8-2.1
	s-2.4-1.7-3-2.6c-0.6-1-0.8-2.1-0.8-3.5c0-2.2,1-4,2.9-5.4c1.9-1.4,4.4-2.1,7.4-2.1c0.8,0,1.6,0.1,2.5,0.2c0.9,0.1,1.8,0.3,2.7,0.6
	c0.9,0.3,1.7,0.7,2.5,1.1c0.7,0.4,1.3,1,1.8,1.7c0.5,0.7,0.7,1.5,0.7,2.3c0,1-0.3,1.9-0.8,2.6s-1.3,1-2.2,1c-0.8,0-1.5-0.2-2.1-0.7
	c-0.6-0.5-0.9-1.1-0.9-1.8c0-1,0.2-1.7,0.7-2.1c0.5-0.4,1.1-0.7,1.7-0.7c-1.4-1.1-3.4-1.7-6-1.7c-1.1,0-2.2,0.2-3.1,0.5
	c-1,0.3-1.8,0.8-2.4,1.5c-0.6,0.7-0.9,1.5-0.9,2.3c0,0.4,0,0.8,0.1,1.1c0.1,0.3,0.2,0.6,0.5,1c0.3,0.4,0.6,0.7,1,1
	c0.4,0.3,1,0.6,1.8,0.9c0.8,0.3,1.7,0.6,2.8,0.8c1.7,0.4,3.3,0.8,4.5,1.3c1.3,0.5,2.3,1,3.1,1.5c0.8,0.5,1.5,1.1,1.9,1.7
	c0.5,0.6,0.8,1.3,1,2c0.2,0.7,0.3,1.4,0.3,2.3c0,2.4-0.9,4.2-2.8,5.6C145.2,27.3,142.5,27.9,139.1,27.9z M150.5,9.4
	c0.9-0.3,1.7-0.8,2.5-1.5c0.7-0.7,1.3-1.5,1.8-2.3c0.4-0.8,0.8-1.6,1.2-2.4c0.3-0.8,0.6-1.4,0.9-1.9c0.3-0.5,0.5-0.8,0.7-0.8
	c0.1,0,0.2,0.1,0.3,0.2C158,0.8,158,1,158,1.2v7.1h7v2h-7v12c0,1,0.2,1.8,0.7,2.4c0.5,0.5,1.1,0.8,1.9,0.8c1,0,1.7-0.3,2.2-0.9
	c0.5-0.6,0.7-1.7,0.7-3.3v-2.6h2.1v2.2c0,2.4-0.4,4.1-1.3,5.3c-0.8,1.2-2.3,1.8-4.4,1.8c-0.7,0-1.4-0.1-2.1-0.3
	c-0.7-0.2-1.3-0.6-1.8-1s-1-1.1-1.3-1.8c-0.3-0.8-0.5-1.6-0.5-2.6V10.3h-3.6V9.4z M179.1,27.4h-11.3v-2h3.5V10.3h-3.5v-2l6.8-0.3
	l0.5,4.2c0.1-0.5,0.3-1,0.6-1.4s0.6-0.9,1-1.4c0.4-0.5,0.9-0.8,1.5-1.1c0.6-0.3,1.3-0.4,2-0.4c1,0,1.8,0.3,2.5,0.8
	c0.7,0.5,1,1.3,1,2.3c0,0.9-0.3,1.6-0.8,2.2c-0.5,0.5-1.2,0.8-1.9,0.8c-0.7,0-1.3-0.2-1.8-0.6c-0.5-0.4-0.8-1-0.8-1.7
	c0-0.3,0.1-0.5,0.2-0.8c0.1-0.3,0.2-0.5,0.4-0.6l0.2-0.2c-0.7,0-1.3,0.2-1.9,0.7s-1,1-1.3,1.8c-0.3,0.7-0.5,1.5-0.7,2.4
	c-0.1,0.8-0.2,1.7-0.2,2.6v8.3h4V27.4z M185,18.1c0-1.1,0.1-2.1,0.4-3.1c0.2-1,0.6-2,1.1-2.8c0.5-0.9,1.1-1.6,1.8-2.3
	s1.6-1.2,2.6-1.5c1-0.4,2.1-0.6,3.2-0.6c1.2,0,2.3,0.2,3.4,0.6c1,0.4,2,1.1,2.8,1.9c0.8,0.8,1.4,1.9,1.9,3.1
	c0.5,1.3,0.7,2.7,0.7,4.2h-13.8v0.1c0,1,0.1,2,0.3,2.9c0.2,0.9,0.5,1.7,1,2.4c0.4,0.7,1,1.3,1.8,1.7c0.7,0.4,1.6,0.6,2.5,0.6
	c1.2,0,2.4-0.4,3.5-1.2c1.1-0.8,1.8-1.9,2.2-3.3l2.1,0.7c-0.5,2-1.4,3.5-2.8,4.7c-1.4,1.2-3.2,1.8-5.3,1.8c-1.5,0-2.8-0.3-4-0.8
	c-1.2-0.6-2.2-1.3-3-2.2c-0.8-0.9-1.4-2-1.8-3.1C185.2,20.6,185,19.4,185,18.1z M189.2,15.7h9.7c-0.1-1.7-0.5-3.1-1.4-4.2
	c-0.9-1.1-2-1.6-3.3-1.6c-1.3,0-2.4,0.5-3.4,1.6C189.9,12.5,189.3,13.9,189.2,15.7z M205.5,18.1c0-1.1,0.1-2.1,0.4-3.1
	c0.2-1,0.6-2,1.1-2.8s1.1-1.6,1.8-2.3s1.6-1.2,2.6-1.5c1-0.4,2.1-0.6,3.2-0.6c1.2,0,2.3,0.2,3.4,0.6s2,1.1,2.8,1.9
	c0.8,0.8,1.4,1.9,1.9,3.1c0.5,1.3,0.7,2.7,0.7,4.2h-13.8v0.1c0,1,0.1,2,0.3,2.9c0.2,0.9,0.5,1.7,1,2.4c0.4,0.7,1,1.3,1.8,1.7
	c0.7,0.4,1.6,0.6,2.5,0.6c1.2,0,2.4-0.4,3.5-1.2c1.1-0.8,1.8-1.9,2.2-3.3l2.1,0.7c-0.5,2-1.4,3.5-2.8,4.7c-1.4,1.2-3.2,1.8-5.3,1.8
	c-1.5,0-2.8-0.3-4-0.8c-1.2-0.6-2.2-1.3-3-2.2c-0.8-0.9-1.4-2-1.8-3.1C205.7,20.6,205.5,19.4,205.5,18.1z M209.8,15.7h9.7
	c-0.1-1.7-0.5-3.1-1.4-4.2c-0.9-1.1-2-1.6-3.3-1.6c-1.3,0-2.4,0.5-3.4,1.6C210.4,12.5,209.9,13.9,209.8,15.7z M224.4,9.4
	c0.9-0.3,1.7-0.8,2.5-1.5c0.7-0.7,1.3-1.5,1.8-2.3c0.4-0.8,0.8-1.6,1.2-2.4c0.3-0.8,0.6-1.4,0.9-1.9c0.3-0.5,0.5-0.8,0.7-0.8
	c0.1,0,0.2,0.1,0.3,0.2c0.1,0.1,0.1,0.3,0.1,0.5v7.1h7v2h-7v12c0,1,0.2,1.8,0.7,2.4c0.5,0.5,1.1,0.8,1.9,0.8c1,0,1.7-0.3,2.2-0.9
	c0.5-0.6,0.7-1.7,0.7-3.3v-2.6h2.1v2.2c0,2.4-0.4,4.1-1.3,5.3c-0.8,1.2-2.3,1.8-4.4,1.8c-0.7,0-1.4-0.1-2.1-0.3
	c-0.7-0.2-1.3-0.6-1.8-1s-1-1.1-1.3-1.8c-0.3-0.8-0.5-1.6-0.5-2.6V10.3h-3.6V9.4z M267.9,27.2h-7.3V7.6h7.2c3.2,0,4.9,1.7,4.9,4.5
	v1.4c0,1.9-0.7,3.3-2.7,3.6c2.1,0.4,2.9,1.8,2.9,3.7v1.9C272.8,25.6,271.1,27.2,267.9,27.2z M268.7,12.5c0-1-0.4-1.6-1.5-1.6h-2.4v5
	h2.2c1.1,0,1.7-0.6,1.7-1.7V12.5z M268.8,20.6c0-1.1-0.6-1.7-1.7-1.7h-2.3V24h2.4c1.1,0,1.5-0.6,1.5-1.6V20.6z M292.2,27.8
	c-4,0-6.4-2.5-6.4-6v-8.6c0-3.5,2.4-6,6.4-6c4.1,0,6.4,2.5,6.4,6v8.6C298.6,25.3,296.2,27.8,292.2,27.8z M294.4,12.9
	c0-1.3-0.8-2.2-2.2-2.2c-1.4,0-2.2,0.9-2.2,2.2V22c0,1.3,0.8,2.2,2.2,2.2c1.4,0,2.2-0.9,2.2-2.2V12.9z M318.1,27.8
	c-4,0-6.4-2.5-6.4-6v-8.6c0-3.5,2.4-6,6.4-6c4.1,0,6.4,2.5,6.4,6v8.6C324.5,25.3,322.1,27.8,318.1,27.8z M320.3,12.9
	c0-1.3-0.8-2.2-2.2-2.2c-1.4,0-2.2,0.9-2.2,2.2V22c0,1.3,0.8,2.2,2.2,2.2c1.4,0,2.2-0.9,2.2-2.2V12.9z M346.6,27.2l-3.3-8l-1.4,2.4
	v5.6h-4.2V7.6h4.2v8.8l4.7-8.8h4.3l-4.6,8.2l4.8,11.4H346.6z M385.3,27.8c-4.1,0-6.6-2.7-6.6-6.1v-8.5c0-3.4,2.4-6.1,6.6-6.1
	c4.1,0,6.2,2.4,6.2,5.7v1.9h-3.8v-1.8c0-1.4-0.8-2.2-2.4-2.2s-2.4,0.9-2.4,2.2V22c0,1.2,0.8,2.2,2.4,2.2s2.4-0.9,2.4-2.2v-1.8h3.8
	V22C391.5,25.3,389.4,27.8,385.3,27.8z M404.4,27.2V7.6h4.2v16h6.4v3.6H404.4z M433.6,27.8c-3.7,0-6.4-2.2-6.4-5.5V7.6h4.3v14.5
	c0,1.3,0.8,2.1,2.1,2.1c1.4,0,2.2-0.7,2.2-2.1V7.6h4.1v14.6C439.9,25.5,437.3,27.8,433.6,27.8z M460.6,27.2h-7.3V7.6h7.2
	c3.2,0,4.9,1.7,4.9,4.5v1.4c0,1.9-0.7,3.3-2.7,3.6c2.1,0.4,2.9,1.8,2.9,3.7v1.9C465.5,25.6,463.7,27.2,460.6,27.2z M461.4,12.5
	c0-1-0.4-1.6-1.5-1.6h-2.4v5h2.2c1.1,0,1.7-0.6,1.7-1.7V12.5z M461.5,20.6c0-1.1-0.6-1.7-1.7-1.7h-2.3V24h2.4c1.1,0,1.5-0.6,1.5-1.6
	V20.6z"/>
</svg>
